<?xml version="1.0" encoding="UTF-8" standalone="no"?>
<!-- Created with Inkscape (http://www.inkscape.org/) -->

<svg
   xmlns:dc="http://purl.org/dc/elements/1.1/"
   xmlns:cc="http://creativecommons.org/ns#"
   xmlns:rdf="http://www.w3.org/1999/02/22-rdf-syntax-ns#"
   xmlns:svg="http://www.w3.org/2000/svg"
   xmlns="http://www.w3.org/2000/svg"
   xmlns:xlink="http://www.w3.org/1999/xlink"
   xmlns:sodipodi="http://sodipodi.sourceforge.net/DTD/sodipodi-0.dtd"
   xmlns:inkscape="http://www.inkscape.org/namespaces/inkscape"
   version="1.1"
   id="svg3699"
   width="1200"
   height="1773.585"
   viewBox="0 0 1200 1773.585"
   sodipodi:docname="building-icon.svg"
   inkscape:version="0.92.4 (unknown)"
   inkscape:export-filename="/home/bradley/eb-appraisal/client/public/img/building-icon.png"
   inkscape:export-xdpi="8.0108938"
   inkscape:export-ydpi="8.0108938">
  <metadata
     id="metadata3705">
    <rdf:RDF>
      <cc:Work
         rdf:about="">
        <dc:format>image/svg+xml</dc:format>
        <dc:type
           rdf:resource="http://purl.org/dc/dcmitype/StillImage" />
        <dc:title></dc:title>
        <dc:date>2018</dc:date>
        <dc:creator>
          <cc:Agent>
            <dc:title>Lazur URH</dc:title>
          </cc:Agent>
        </dc:creator>
      </cc:Work>
    </rdf:RDF>
  </metadata>
  <defs
     id="defs3703">
    <linearGradient
       inkscape:collect="always"
       id="linearGradient6618">
      <stop
         style="stop-color:#319dd2;stop-opacity:1"
         offset="0"
         id="stop6614" />
      <stop
         style="stop-color:#2384c1;stop-opacity:1"
         offset="1"
         id="stop6616" />
    </linearGradient>
    <linearGradient
       inkscape:collect="always"
       xlink:href="#linearGradient6618"
       id="linearGradient6620"
       x1="200"
       y1="250"
       x2="200"
       y2="1350"
       gradientUnits="userSpaceOnUse" />
  </defs>
  <sodipodi:namedview
     pagecolor="#003af6"
     bordercolor="#ffffff"
     borderopacity="1"
     objecttolerance="10"
     gridtolerance="10"
     guidetolerance="10"
     inkscape:pageopacity="0"
     inkscape:pageshadow="2"
     inkscape:window-width="1920"
     inkscape:window-height="983"
     id="namedview3701"
     showgrid="false"
     inkscape:pagecheckerboard="true"
     showguides="true"
     inkscape:guide-bbox="true"
     guidecolor="#00ffe4"
     guideopacity="1"
     guidehicolor="#f000ff"
     guidehiopacity="1"
     borderlayer="true"
     inkscape:showpageshadow="false"
     inkscape:zoom="0.23422912"
     inkscape:cx="886.89313"
     inkscape:cy="999.97583"
     inkscape:window-x="0"
     inkscape:window-y="27"
     inkscape:window-maximized="1"
     inkscape:current-layer="svg3699"
     inkscape:snap-global="true"
     inkscape:snap-smooth-nodes="true"
     inkscape:snap-center="true"
     fit-margin-top="0"
     fit-margin-left="0"
     fit-margin-right="0"
     fit-margin-bottom="0" />
  <g
     id="g34"
     transform="translate(-200,-200)">
    <path
       sodipodi:nodetypes="cccccc"
       inkscape:connector-curvature="0"
       id="rect6611"
       d="M 200,200 H 1400 V 1400 L 800,1973.5849 200,1400 Z"
       style="color:#000000;clip-rule:nonzero;display:inline;overflow:visible;visibility:visible;opacity:1;isolation:auto;mix-blend-mode:normal;color-interpolation:sRGB;color-interpolation-filters:linearRGB;solid-color:#000000;solid-opacity:1;vector-effect:none;fill:url(#linearGradient6620);fill-opacity:1;fill-rule:nonzero;stroke:none;stroke-width:1;stroke-linecap:round;stroke-linejoin:miter;stroke-miterlimit:4;stroke-dasharray:none;stroke-dashoffset:0;stroke-opacity:1;marker:none;paint-order:markers stroke fill;color-rendering:auto;image-rendering:auto;shape-rendering:auto;text-rendering:auto;enable-background:accumulate" />
  </g>
  <path
     inkscape:connector-curvature="0"
     d="M 315.66238,214.5425 H 884.7754 c 5.3411,0.79721 10.1243,4.54393 12.0375,9.56623 1.5147,3.74688 0.8769,7.89213 1.0364,11.79836 0,1048.38301 1.9929,982.93381 -4.0657,989.55041 -56.7598,-8.6097 -132.97108,-16.3423 -209.97946,-19.5312 0.23915,-184.4694 0.31887,-174.3451 -1.19579,-183.1141 -2.551,-14.8277 -9.16767,-28.9381 -19.05281,-40.3379 -46.07751,-53.8898 -134.48575,-28.6987 -145.80582,40.9756 -1.43495,8.0516 -1.03634,-0.9566 -1.03634,182.5562 -70.39177,2.7902 -140.54438,9.1676 -210.29839,19.1325 -7.09499,-7.8921 -3.82651,51.2592 -3.82651,-991.78249 -0.0797,-3.26837 -0.0797,-6.77607 1.27551,-9.80541 1.99297,-4.78312 6.69638,-8.21099 11.79839,-9.0082 m 54.60743,51.65787 c -4.86286,1.11607 -8.4502,5.89919 -8.37048,10.92148 0,76.21117 -2.15241,77.40691 7.01526,80.91461 2.39156,0.95656 -2.31185,0.63771 75.33433,0.71754 5.50061,0 10.44317,-4.86295 10.44317,-10.36344 0,-23.43738 0,-46.79509 0,-70.23247 0.87692,-6.05853 -4.2251,-12.19689 -10.36345,-12.19689 -20.88635,0 -41.69297,0 -62.57931,0 -3.82651,0.079 -7.73274,-0.39869 -11.47952,0.23917 m 191.64417,0 c -4.94257,1.19574 -8.21105,5.26132 -8.13133,12.91444 0,22.87934 0,45.75853 0,68.55821 -0.0797,4.46426 2.94959,8.84885 7.17471,10.36344 2.31183,0.87689 -2.39158,0.63771 74.85601,0.63771 4.38455,0.0806 8.52992,-2.94951 9.96486,-7.01525 0.95662,-2.39148 0.71747,2.15246 0.71747,-75.0951 0,-4.22508 -2.86988,-10.8418 -12.67529,-10.6823 -75.09518,0 -70.0729,-0.1595 -71.90643,0.31885 m 192.12244,-0.0806 c -3.66707,0.87705 -6.7761,3.74689 -7.81245,7.33426 -0.87691,2.55099 -0.87691,75.57346 0.15943,78.12445 1.43495,4.14541 5.58033,7.17475 10.04458,7.09492 23.91566,0 47.75162,0 71.66732,0 5.5006,-0.079 10.3634,-4.94246 10.4431,-10.44312 0.08,-77.72592 0.1595,-72.54412 -0.3188,-74.21822 -0.9567,-3.6672 -3.9063,-6.69639 -7.5733,-7.65311 -1.8336,-0.55803 -3.6671,-0.39852 -5.5804,-0.39852 -74.37768,-0.079 -68.79735,-0.15951 -71.02948,0.15934 M 371.70474,426.19536 c -4.2251,0.39853 -9.96485,3.74672 -9.80541,12.51574 0,23.03886 0,46.07755 0,69.11641 -0.0797,4.54393 2.94959,9.0082 7.33413,10.44312 2.23213,0.87688 -2.47128,0.55803 75.09518,0.55803 4.2251,-0.079 8.21104,-2.94967 9.72571,-6.8559 0.95662,-2.23213 0.71746,2.55098 0.71746,-75.81264 -0.23915,-5.34115 -5.02228,-10.04459 -10.36345,-10.04459 -24.31426,0.0806 -48.46907,0 -72.70362,0.0806 m 191.7239,0 c -5.42089,0.55803 -9.72571,5.58033 -9.56627,11.00115 0,23.51706 0,47.11378 0,70.631 -0.0797,4.22508 2.551,8.37033 6.37751,10.12426 2.63072,1.27542 -1.43493,0.95656 75.73292,0.95656 4.38454,0.079 8.60964,-3.02934 10.04459,-7.17475 0.8769,-2.31181 0.63774,2.31196 0.63774,-75.0951 0,-5.58033 -5.02228,-10.6823 -10.68233,-10.52295 -24.23453,0.0806 -48.38935,-0.079 -72.54416,0.0806 m 191.16581,0.079 c -4.94257,0.87689 -8.84879,5.42082 -8.84879,10.44312 -0.0797,77.32739 -0.23916,72.78345 0.63774,75.09526 1.43495,4.14541 5.58033,7.1746 10.04458,7.09492 23.91566,0 47.83132,0 71.66732,0 5.5006,-0.079 10.3634,-5.02229 10.3634,-10.52279 0,-77.16789 0.2392,-72.78346 -0.6377,-75.17494 -1.5147,-4.22508 -5.8195,-7.17475 -10.2041,-7.09507 -73.73992,0.0806 -69.83369,-0.079 -73.02245,0.1595 M 370.11036,586.75011 c -4.70341,1.11607 -8.29075,5.73968 -8.21103,10.60263 -0.0797,76.13149 -0.31889,72.54412 0.95662,75.25461 1.59438,3.82639 5.58033,6.53688 9.72571,6.53688 23.91566,0 47.83132,0 71.74698,0 5.42089,0 10.28373,-4.78311 10.44317,-10.20393 0,-24.07525 0,-48.07051 0,-72.14559 0,-5.50066 -4.94258,-10.36345 -10.44317,-10.44328 -77.16787,0 -72.38474,-0.079 -74.21828,0.39868 m 191.7239,0.079 c -4.62369,1.19573 -8.05161,5.73967 -7.97189,10.52295 0,23.51705 0,47.11378 0,70.63083 -0.15944,4.94263 3.4279,11.55919 12.43614,11.16066 75.33434,-0.079 71.10924,0.31886 73.5008,-0.79721 3.98595,-1.51459 6.77612,-5.66 6.77612,-9.88509 0,-23.75623 0,-47.43279 0,-71.18903 0.0797,-4.46426 -3.02933,-11.24033 -12.67532,-10.92147 -73.81967,0.0806 -69.91344,-0.15935 -72.06585,0.47836 m 191.24554,0.1595 c -3.26848,1.11607 -5.97892,3.8264 -6.85583,7.1746 -0.63775,1.99295 -0.47831,-2.79017 -0.47831,74.29804 0,4.30476 2.79015,8.3705 6.7761,9.96476 2.31184,1.0364 -2.07269,0.79722 75.57354,0.71754 5.5803,-0.079 10.4431,-5.10197 10.4431,-10.6823 0,-77.16788 0.2392,-72.54427 -0.6377,-74.85608 -1.435,-4.30475 -5.8195,-7.3341 -10.3635,-7.25442 -76.76926,0.0806 -72.14557,-0.15935 -74.4574,0.63786 M 369.79149,747.14378 c -4.54396,1.19574 -7.89216,5.66001 -7.81244,10.36345 -0.0797,23.59688 0,47.11394 0,70.71067 -0.15944,4.70344 2.94959,9.4069 7.49357,10.762 2.23212,0.7972 -2.63072,0.4783 73.34137,0.558 7.97188,0.319 11.8781,-5.5005 11.95782,-10.28361 0,-78.28395 0.15944,-72.78345 -0.23915,-74.29805 -0.7972,-3.58737 -3.66707,-6.53689 -7.09498,-7.65295 -3.02932,-1.03639 -75.5735,-0.79721 -77.64619,-0.15951 m 192.12249,-0.079 c -4.62371,1.19574 -8.05161,5.66 -8.05161,10.44312 -0.15944,76.291 -0.23916,72.62395 0.79718,75.17493 1.51467,3.90627 5.42089,6.77607 9.64599,6.77607 23.99538,0 48.07048,0 72.06587,0 5.58031,-0.1593 10.28372,-5.1816 10.20402,-10.76197 0,-23.75623 0,-47.4328 0,-71.18903 0.0797,-4.30476 -2.71045,-8.45017 -6.77612,-10.04459 -3.02931,-1.27542 -75.6532,-1.03624 -77.88533,-0.39853 m 191.64413,0 c -4.54399,1.19574 -7.97189,5.66 -7.81245,10.44312 0,23.67656 0,47.4328 0,71.1092 -0.0797,5.5006 4.62369,10.6026 10.204,10.7621 24.07511,0 48.15024,0 72.14564,0 4.4642,-0.079 8.5299,-3.2685 9.8851,-7.4139 0.7972,-2.23214 0.558,2.4713 0.558,-74.53707 0.1595,-5.66001 -4.7831,-10.6823 -10.4431,-10.84181 -77.24764,-0.079 -72.86309,0.079 -74.53719,0.47836 M 370.26981,907.2997 c -4.78314,1.1161 -8.52992,5.0223 -8.37048,12.3564 0,23.0387 0,46.0775 0,69.1162 -0.0797,5.5804 4.54397,10.6823 10.1243,10.9215 24.0751,0 48.15019,0 72.14557,0 5.50061,0 10.44317,-4.9426 10.44317,-10.4431 0,-24.0751 0,-48.1502 0,-72.1456 -0.15943,-4.225 -3.02932,-8.1313 -7.01525,-9.4865 -2.86989,-1.1161 -75.25463,-0.8769 -77.32731,-0.3189 m 383.84633,-0.079 c -4.70341,1.0364 -8.37048,5.5007 -8.37048,10.3635 0,23.7562 0,47.5125 0,71.189 -0.0797,4.3048 2.63072,8.5299 6.69638,10.1243 2.39156,1.1161 -1.91325,0.8769 75.65326,0.7972 5.5006,-0.079 10.3634,-4.9426 10.4431,-10.4431 0.08,-76.9287 0.08,-72.3848 -0.2391,-73.7401 -1.9133,-9.5662 -12.0376,-8.5298 -14.2697,-8.6096 -73.10222,0.079 -68.15966,-0.079 -69.91346,0.3188 m -384.48409,155.4518 c -4.54397,1.3552 -7.81244,5.8195 -7.73272,10.5229 0,23.5968 0,47.1138 0,70.7107 -0.23917,6.0585 5.102,11.4795 11.16064,11.1607 23.75622,0 47.51244,0 71.18895,0 5.58031,-0.079 10.52289,-5.1022 10.36345,-10.6825 0,-23.9156 0,-47.7515 0,-71.6672 0,-5.5007 -4.86284,-10.4431 -10.44317,-10.4431 -78.04477,0 -72.46446,-0.2392 -74.53715,0.3985 m 383.44775,0.079 c -4.38455,1.4351 -7.49358,5.8994 -7.33414,10.4433 0,23.7562 0,47.4326 0,71.1889 0,4.3846 3.02931,8.6096 7.25441,10.0446 2.39156,0.8768 -1.75382,0.558 72.06583,0.6378 2.2322,0 4.6237,0.079 6.6964,-0.7972 4.3048,-1.6741 7.095,-6.2979 6.7761,-10.8418 0,-23.5171 0,-47.1139 0,-70.631 -0.08,-5.3411 -4.6237,-10.1242 -9.9648,-10.4431 -79.16087,-0.1595 -73.66028,-0.3188 -75.4938,0.3985 z"
     id="path2-3"
     style="fill:#ffffff;stroke-width:0.99999988" />
</svg>
