<?xml version="1.0" encoding="UTF-8" standalone="no"?>
<!-- Created with Inkscape (http://www.inkscape.org/) -->

<svg
   xmlns:dc="http://purl.org/dc/elements/1.1/"
   xmlns:cc="http://creativecommons.org/ns#"
   xmlns:rdf="http://www.w3.org/1999/02/22-rdf-syntax-ns#"
   xmlns:svg="http://www.w3.org/2000/svg"
   xmlns="http://www.w3.org/2000/svg"
   xmlns:xlink="http://www.w3.org/1999/xlink"
   xmlns:sodipodi="http://sodipodi.sourceforge.net/DTD/sodipodi-0.dtd"
   xmlns:inkscape="http://www.inkscape.org/namespaces/inkscape"
   version="1.1"
   id="svg3699"
   width="1600"
   height="1600"
   viewBox="0 0 1600 1600"
   sodipodi:docname="no-building-image.svg"
   inkscape:version="0.92.4 (unknown)"
   inkscape:export-filename="/home/bradley/eb-appraisal/client/public/img/no_building_image.png"
   inkscape:export-xdpi="15.36"
   inkscape:export-ydpi="15.36">
  <metadata
     id="metadata3705">
    <rdf:RDF>
      <cc:Work
         rdf:about="">
        <dc:format>image/svg+xml</dc:format>
        <dc:type
           rdf:resource="http://purl.org/dc/dcmitype/StillImage" />
        <dc:title></dc:title>
        <dc:date>2018</dc:date>
        <dc:creator>
          <cc:Agent>
            <dc:title>Lazur URH</dc:title>
          </cc:Agent>
        </dc:creator>
      </cc:Work>
    </rdf:RDF>
  </metadata>
  <defs
     id="defs3703">
    <linearGradient
       inkscape:collect="always"
       id="linearGradient6618">
      <stop
         style="stop-color:#319dd2;stop-opacity:1"
         offset="0"
         id="stop6614" />
      <stop
         style="stop-color:#2384c1;stop-opacity:1"
         offset="1"
         id="stop6616" />
    </linearGradient>
    <linearGradient
       inkscape:collect="always"
       id="linearGradient6334">
      <stop
         style="stop-color:#a3bfdb;stop-opacity:1"
         offset="0"
         id="stop6330" />
      <stop
         style="stop-color:#7ba2cd;stop-opacity:1"
         offset="1"
         id="stop6332" />
    </linearGradient>
    <linearGradient
       inkscape:collect="always"
       xlink:href="#linearGradient6618"
       id="linearGradient6620"
       x1="200"
       y1="250"
       x2="200"
       y2="1350"
       gradientUnits="userSpaceOnUse" />
    <linearGradient
       inkscape:collect="always"
       xlink:href="#linearGradient6334"
       id="linearGradient4555"
       gradientUnits="userSpaceOnUse"
       x1="0"
       y1="50"
       x2="0"
       y2="1550" />
  </defs>
  <sodipodi:namedview
     pagecolor="#003af6"
     bordercolor="#ffffff"
     borderopacity="1"
     objecttolerance="10"
     gridtolerance="10"
     guidetolerance="10"
     inkscape:pageopacity="0.7450980392"
     inkscape:pageshadow="2"
     inkscape:window-width="1920"
     inkscape:window-height="983"
     id="namedview3701"
     showgrid="false"
     inkscape:pagecheckerboard="true"
     showguides="true"
     inkscape:guide-bbox="true"
     guidecolor="#00ffe4"
     guideopacity="1"
     guidehicolor="#f000ff"
     guidehiopacity="1"
     borderlayer="true"
     inkscape:showpageshadow="false"
     inkscape:zoom="0.11711456"
     inkscape:cx="459.2978"
     inkscape:cy="382.16817"
     inkscape:window-x="0"
     inkscape:window-y="27"
     inkscape:window-maximized="1"
     inkscape:current-layer="svg3699"
     inkscape:snap-global="true"
     inkscape:snap-smooth-nodes="true"
     inkscape:snap-center="true" />
  <g
     id="g34">
    <path
       sodipodi:nodetypes="ccccc"
       inkscape:connector-curvature="0"
       id="rect6327"
       d="m -1.894780608400103e-17,0 h 1600 v 1600.000024415553 h -1600 z"
       style="color:#000000;clip-rule:nonzero;display:inline;overflow:visible;visibility:visible;opacity:1;isolation:auto;mix-blend-mode:normal;color-interpolation:sRGB;color-interpolation-filters:linearRGB;solid-color:#000000;solid-opacity:1;vector-effect:none;fill:url(#linearGradient4555);fill-opacity:1;fill-rule:nonzero;stroke:none;stroke-width:1;stroke-linecap:round;stroke-linejoin:miter;stroke-miterlimit:4;stroke-dasharray:none;stroke-dashoffset:0;stroke-opacity:1;marker:none;paint-order:markers stroke fill;color-rendering:auto;image-rendering:auto;shape-rendering:auto;text-rendering:auto;enable-background:accumulate" />
    <path
       sodipodi:nodetypes="ccccc"
       inkscape:connector-curvature="0"
       id="rect6600"
       d="m 100,100 h 1400 v 1400 h -1400.000000000005 z"
       style="color:#000000;clip-rule:nonzero;display:inline;overflow:visible;visibility:visible;opacity:1;isolation:auto;mix-blend-mode:normal;color-interpolation:sRGB;color-interpolation-filters:linearRGB;solid-color:#000000;solid-opacity:1;vector-effect:none;fill:#ffffff;fill-opacity:1;fill-rule:nonzero;stroke:none;stroke-width:1;stroke-linecap:round;stroke-linejoin:miter;stroke-miterlimit:4;stroke-dasharray:none;stroke-dashoffset:0;stroke-opacity:1;marker:none;paint-order:markers stroke fill;color-rendering:auto;image-rendering:auto;shape-rendering:auto;text-rendering:auto;enable-background:accumulate" />
    <path
       sodipodi:nodetypes="ccccc"
       inkscape:connector-curvature="0"
       id="rect6611"
       d="m 200,200 h 1200 v 1200 h -1200 z"
       style="color:#000000;clip-rule:nonzero;display:inline;overflow:visible;visibility:visible;opacity:1;isolation:auto;mix-blend-mode:normal;color-interpolation:sRGB;color-interpolation-filters:linearRGB;solid-color:#000000;solid-opacity:1;vector-effect:none;fill:url(#linearGradient6620);fill-opacity:1;fill-rule:nonzero;stroke:none;stroke-width:1;stroke-linecap:round;stroke-linejoin:miter;stroke-miterlimit:4;stroke-dasharray:none;stroke-dashoffset:0;stroke-opacity:1;marker:none;paint-order:markers stroke fill;color-rendering:auto;image-rendering:auto;shape-rendering:auto;text-rendering:auto;enable-background:accumulate" />
  </g>
  <path
     inkscape:connector-curvature="0"
     d="m 614.67129,456.53141 h 360.00904 c 3.37871,0.5043 6.40442,2.8744 7.6147,6.0514 0.95815,2.3702 0.55472,4.9924 0.65558,7.4634 0,663.18529 1.26071,621.78349 -2.57186,625.96899 -35.90509,-5.4463 -84.11474,-10.3378 -132.82864,-12.355 0.15128,-116.69149 0.20171,-110.28709 -0.75643,-115.83419 -1.61371,-9.3797 -5.79928,-18.3056 -12.05241,-25.5169 -29.14768,-34.0896 -85.07289,-18.1542 -92.23373,25.9203 -0.90772,5.0933 -0.65557,-0.6051 -0.65557,115.48129 -44.52837,1.765 -88.90545,5.7992 -133.03039,12.1028 -4.48814,-4.9924 -2.42057,32.4255 -2.42057,-627.38099 -0.0504,-2.0675 -0.0504,-4.2864 0.80686,-6.2027 1.26071,-3.0257 4.23599,-5.1941 7.46342,-5.6984 m 34.54352,32.6777 c -3.07614,0.706 -5.34542,3.7317 -5.29499,6.9087 0,48.2096 -1.36157,48.966 4.43771,51.1849 1.51285,0.6051 -1.46243,0.4034 47.65493,0.4539 3.47957,0 6.60613,-3.0762 6.60613,-6.5557 0,-14.826 0,-29.6016 0,-44.4276 0.55472,-3.8325 -2.67271,-7.7155 -6.5557,-7.7155 -13.21227,0 -26.37411,0 -39.58637,0 -2.42057,0.05 -4.89157,-0.2522 -7.26171,0.1513 m 121.23012,0 c -3.12657,0.7564 -5.19414,3.3282 -5.14371,8.1694 0,14.473 0,28.9459 0,43.3685 -0.0504,2.824 1.86585,5.5976 4.53857,6.5557 1.46242,0.5547 -1.51286,0.4034 47.35236,0.4034 2.77357,0.051 5.39585,-1.8658 6.30356,-4.4377 0.60514,-1.5128 0.45386,1.3616 0.45386,-47.5036 0,-2.6727 -1.81543,-6.8583 -8.01813,-6.7574 -47.50365,0 -44.32666,-0.1009 -45.48651,0.2017 m 121.53266,-0.051 c -2.31971,0.5548 -4.28642,2.3702 -4.94199,4.6395 -0.55472,1.6137 -0.55472,47.8062 0.10085,49.4199 0.90772,2.6223 3.53,4.5386 6.35399,4.4881 15.12855,0 30.20668,0 45.33523,0 3.47956,-0.05 6.5557,-3.1265 6.60613,-6.6061 0.0504,-49.1678 0.10086,-45.8899 -0.20171,-46.9489 -0.60515,-2.3198 -2.471,-4.236 -4.79071,-4.8412 -1.15986,-0.353 -2.31971,-0.2521 -3.53,-0.2521 -47.04979,-0.05 -43.51979,-0.1009 -44.93179,0.1008 m -241.85507,101.2605 c -2.67271,0.2521 -6.30356,2.3701 -6.2027,7.9172 0,14.5739 0,29.1477 0,43.7216 -0.0504,2.8744 1.86585,5.6984 4.63942,6.6061 1.412,0.5547 -1.56328,0.353 47.50365,0.353 2.67271,-0.05 5.19413,-1.8659 6.15228,-4.3369 0.60514,-1.412 0.45385,1.6137 0.45385,-47.9575 -0.15128,-3.3787 -3.17699,-6.354 -6.5557,-6.354 -15.3807,0.051 -30.66053,0 -45.9908,0.051 m 121.28055,0 c -3.42914,0.353 -6.15228,3.53 -6.05142,6.9591 0,14.8764 0,29.8032 0,44.6797 -0.0504,2.6727 1.61371,5.2949 4.03428,6.4044 1.66414,0.8068 -0.90771,0.6051 47.90707,0.6051 2.77357,0.05 5.44628,-1.9163 6.354,-4.5386 0.55471,-1.4624 0.40342,1.4625 0.40342,-47.5036 0,-3.53 -3.17699,-6.7574 -6.75742,-6.6566 -15.33026,0.051 -30.6101,-0.05 -45.88993,0.051 m 120.92752,0.05 c -3.12657,0.5547 -5.59756,3.4291 -5.59756,6.6061 -0.0504,48.9157 -0.15129,46.0413 0.40342,47.5037 0.90772,2.6223 3.53,4.5385 6.35399,4.4881 15.12855,0 30.25711,0 45.33523,0 3.47956,-0.05 6.5557,-3.177 6.5557,-6.6565 0,-48.8148 0.15129,-46.0413 -0.40343,-47.5541 -0.95814,-2.6727 -3.68128,-4.5386 -6.45484,-4.4882 -46.64637,0.051 -44.17537,-0.05 -46.19251,0.1009 m -243.21664,101.5126 c -2.97528,0.706 -5.24456,3.6308 -5.19413,6.707 -0.0504,48.1592 -0.20172,45.8899 0.60514,47.6045 1.00857,2.4205 3.53,4.1351 6.15228,4.1351 15.12855,0 30.2571,0 45.38565,0 3.42914,0 6.50527,-3.0257 6.60613,-6.4548 0,-15.2295 0,-30.4084 0,-45.6378 0,-3.4796 -3.12657,-6.5557 -6.60613,-6.6062 -48.81479,0 -45.78908,-0.05 -46.94894,0.2522 m 121.28055,0.05 c -2.92485,0.7564 -5.09328,3.6308 -5.04285,6.6566 0,14.8764 0,29.8032 0,44.6796 -0.10086,3.1266 2.16842,7.3121 7.86684,7.06 47.65494,-0.05 44.98223,0.2017 46.49508,-0.5043 2.52143,-0.9581 4.28643,-3.5804 4.28643,-6.2531 0,-15.0277 0,-30.005 0,-45.0327 0.0504,-2.824 -1.91629,-7.1104 -8.01814,-6.9087 -46.69679,0.051 -44.22579,-0.1008 -45.58736,0.3026 m 120.97795,0.1009 c -2.06757,0.706 -3.78214,2.4205 -4.33685,4.5385 -0.40343,1.2607 -0.30257,-1.765 -0.30257,46.9994 0,2.7231 1.76499,5.295 4.28642,6.3035 1.46242,0.6556 -1.31114,0.5043 47.80622,0.4539 3.52999,-0.05 6.60613,-3.2274 6.60613,-6.7574 0,-48.8148 0.15129,-45.89 -0.40343,-47.3524 -0.90771,-2.7231 -3.68128,-4.6394 -6.5557,-4.589 -48.56265,0.051 -45.6378,-0.1008 -47.10022,0.4035 m -242.46021,101.3108 c -2.87442,0.7564 -4.99242,3.5804 -4.94199,6.5557 -0.0504,14.9269 0,29.8033 0,44.7301 -0.10086,2.9753 1.86585,5.9506 4.74028,6.8078 1.41199,0.5043 -1.66414,0.3026 46.39422,0.353 5.04285,0.2018 7.51384,-3.4795 7.56427,-6.5052 0,-49.5208 0.10086,-46.0413 -0.15128,-46.9994 -0.50429,-2.2693 -2.31971,-4.1351 -4.48814,-4.8411 -1.91628,-0.6556 -47.80622,-0.5043 -49.11736,-0.1009 m 121.53269,-0.05 c -2.92486,0.7564 -5.09328,3.5804 -5.09328,6.6061 -0.10086,48.2601 -0.15129,45.9404 0.50428,47.5541 0.95815,2.471 3.42914,4.2864 6.10185,4.2864 15.17898,0 30.40839,0 45.58737,0 3.52999,-0.1008 6.50527,-3.2778 6.45485,-6.8078 0,-15.0277 0,-30.005 0,-45.0327 0.0504,-2.7231 -1.71457,-5.3454 -4.28643,-6.354 -1.91628,-0.8068 -47.85664,-0.6555 -49.26864,-0.2521 m 121.23009,0 c -2.87443,0.7564 -5.04285,3.5804 -4.94199,6.6061 0,14.9773 0,30.005 0,44.9822 -0.0504,3.4796 2.92485,6.707 6.45484,6.8079 15.22941,0 30.45882,0 45.6378,0 2.82399,-0.05 5.39585,-2.0676 6.25313,-4.6899 0.50429,-1.412 0.353,1.5633 0.353,-47.1506 0.10086,-3.5804 -3.02571,-6.7574 -6.60613,-6.8583 -48.86522,-0.05 -46.09165,0.05 -47.15065,0.3026 m -242.46021,101.3613 c -3.02571,0.706 -5.39585,3.177 -5.29499,7.8164 0,14.5738 0,29.1477 0,43.7215 -0.0504,3.53 2.87442,6.7574 6.40442,6.9087 15.22941,0 30.45881,0 45.63779,0 3.47957,0 6.60613,-3.1266 6.60613,-6.6061 0,-15.2294 0,-30.4588 0,-45.6378 -0.10085,-2.6727 -1.91628,-5.1437 -4.4377,-6.001 -1.81543,-0.706 -47.60451,-0.5547 -48.91565,-0.2017 m 242.81321,-0.05 c -2.97528,0.6556 -5.29499,3.4796 -5.29499,6.5557 0,15.0277 0,30.0554 0,45.0327 -0.0504,2.7231 1.66414,5.3958 4.23599,6.4044 1.51285,0.706 -1.21028,0.5547 47.85665,0.5043 3.47956,-0.05 6.5557,-3.1266 6.60613,-6.6061 0.0504,-48.6635 0.0504,-45.7891 -0.15128,-46.6464 -1.21029,-6.0514 -7.61471,-5.3958 -9.02671,-5.4463 -46.24293,0.05 -43.11637,-0.05 -44.22579,0.2017 m -243.21664,98.3356 c -2.87442,0.8573 -4.94199,3.6813 -4.89156,6.6566 0,14.92679 0,29.80319 0,44.73009 -0.15129,3.8325 3.22742,7.2617 7.05999,7.06 15.02769,0 30.05538,0 45.03265,0 3.52999,-0.05 6.65656,-3.2275 6.5557,-6.7575 0,-15.1285 0,-30.2066 0,-45.33519 0,-3.4796 -3.07613,-6.6061 -6.60613,-6.6061 -49.3695,0 -45.83951,-0.1513 -47.15065,0.2521 m 242.56107,0.05 c -2.77357,0.9078 -4.74028,3.7318 -4.63942,6.6062 0,15.02769 0,30.00489 0,45.03259 0,2.7736 1.91628,5.4463 4.58899,6.354 1.51285,0.5547 -1.10943,0.353 45.58736,0.4035 1.412,0 2.92486,0.05 4.236,-0.5043 2.72314,-1.059 4.48813,-3.9839 4.28642,-6.8583 0,-14.8764 0,-29.8033 0,-44.67969 -0.0504,-3.3787 -2.92485,-6.4044 -6.30356,-6.6061 -50.0755,-0.1009 -46.59594,-0.2017 -47.75579,0.2521 z"
     id="path2-3"
     style="stroke-width:0.99999994;fill:#ffffff" />
  <path
     inkscape:connector-curvature="0"
     d="m 569.99164,756.22801 c 16.38926,9.9344 24.6091,22.9954 24.55868,23.8527 0,65.557 0,131.1141 0,196.6711 -8.97628,0.9582 -18.10384,0 -26.67668,-2.7736 -2.37014,40.79669 2.16842,85.82939 9.48056,126.02089 -19.4654,3.4795 -38.82995,7.2617 -58.09364,11.5985 6.80785,-41.2001 7.66514,-85.325 4.942,-126.47469 33.28281,-34.1905 3.78213,-93.0405 -46.44465,-83.3583 -14.22084,-22.8945 -43.5198,-33.0306 -69.38962,-23.0458 -6.75742,-31.9717 12.15327,-62.1279 40.84709,-71.558 9.7327,-52.95 69.94433,-81.6438 120.77626,-50.9328 z"
     id="path4"
     style="stroke-width:0.99999994;fill:#ffffff" />
  <path
     inkscape:connector-curvature="0"
     d="m 474.88348,912.90931 c 41.35137,-8.472 66.96905,42.6121 35.75381,70.5999 8.06856,29.90409 -20.32269,57.08509 -49.97464,47.55409 -1.81543,28.7947 2.47099,62.6322 8.57284,90.9226 -44.62922,11.8507 -37.56923,11.296 -42.05737,11.4473 7.76599,-31.064 8.97627,-65.3049 6.75742,-97.1253 -23.29797,6.8078 -46.24294,-11.5986 -44.83094,-35.2495 -34.79566,-10.69089 -35.14866,-60.21169 -0.75642,-71.55809 7.81641,-42.0574 63.69119,-52.8491 86.5353,-16.591 z"
     id="path6"
     style="stroke-width:0.99999994;fill:#ffffff" />
  <path
     inkscape:connector-curvature="0"
     d="m 1169.0822,950.83161 c -42.4608,-0.05 -84.972,0 -127.4328,0 -0.05,-3.8326 0.05,-7.6147 -0.05,-11.3969 -2.7736,-4.3368 -5.648,-8.6737 -8.4216,-13.0105 -2.9248,4.3368 -5.7488,8.7241 -8.5728,13.1114 -0.05,3.7821 0,7.5643 0,11.296 -4.9924,0 -9.9849,0 -14.9773,0 0,5.6984 0,11.3464 0,17.0448 4.9924,0 9.9849,0 14.9773,0 0,45.38559 0,90.77129 0,136.10649 5.6984,1.1094 11.3464,2.2189 17.0448,3.4292 0,-46.4951 0,-93.0406 0,-139.53569 h 27.4835 c 0,4.942 0,9.9344 0,14.8764 -10.8421,0.05 -13.3635,-1.059 -13.3635,5.3959 0,62.68259 -1.8659,58.14399 6.2027,58.34569 32.9802,0 66.0109,0 98.9911,0 2.0676,0.1009 4.0343,-1.6137 4.0848,-3.7317 0.05,-18.6585 0,-37.2666 0,-55.92519 0.2017,-2.471 -2.2693,-4.4881 -4.6395,-4.0847 -2.9248,0 -5.8497,0 -8.7745,0 0,-4.942 0,-9.9344 0,-14.8764 18.6585,0 17.297,0.1009 17.9021,-0.2521 4.236,-2.7736 8.472,-5.4968 12.708,-8.3207 -4.3873,-2.7736 -8.7242,-5.7993 -13.1619,-8.472 z m -96.621,31.8708 c 0,-4.942 0,-9.9344 0,-14.8764 25.3151,0 50.6302,0 75.9958,0 0,4.942 0,9.884 0,14.8764 -25.3656,0.05 -50.6807,0 -75.9958,0 z"
     id="path8"
     style="stroke-width:0.99999994;fill:#ffffff" />
  <path
     inkscape:connector-curvature="0"
     d="m 1390.1103,1248.158 c 7.0096,3.4796 5.6984,13.5653 -1.9163,15.2294 -19.8688,0 -532.72662,-319.31329 -1181.84228,-14.4225 -4.942,2.471 -11.19513,-0.6052 -11.64899,-6.6062 0,-6.707 4.43771,-7.766 8.52242,-9.7327 382.50018,-178.5169 807.00725,-176.6006 1186.88515,15.532 z"
     id="path10-6"
     style="stroke-width:0.99999994;fill:#ffffff" />
</svg>
